<svg width="64" height="64" viewBox="0 0 64 64" fill="none" xmlns="http://www.w3.org/2000/svg">
<path d="M48 25.3332V38.6665M16 25.3332V38.6665M10.6667 45.3332H53.3333C54.8061 45.3332 56 44.1393 56 42.6665V21.3332C56 19.8604 54.8061 18.6665 53.3333 18.6665H10.6667C9.19392 18.6665 8 19.8604 8 21.3332V42.6665C8 44.1393 9.19392 45.3332 10.6667 45.3332ZM38.6667 31.9998C38.6667 35.6817 35.6819 38.6665 32 38.6665C28.3181 38.6665 25.3333 35.6817 25.3333 31.9998C25.3333 28.318 28.3181 25.3332 32 25.3332C35.6819 25.3332 38.6667 28.318 38.6667 31.9998Z" stroke="#001A5C" stroke-width="3" stroke-linecap="round" stroke-linejoin="round"/>
</svg>
