<svg width="49" height="50" viewBox="0 0 49 50" fill="none" xmlns="http://www.w3.org/2000/svg">
<path d="M30.75 10.9445C32.5928 11.312 34.4223 12.1428 35.75 13.5C37.0775 14.8572 37.8903 16.7273 38.25 18.6111M32 2C35.8288 2.4348 39.274 4.32829 42 7.11112C44.7258 9.89395 46.5698 13.42 47 17.3334M46.9985 36.4405V43.3653C47.009 46.0126 44.6805 48.2232 42.066 47.9819C19.5 48.0001 2.00001 29.9451 2.01766 7.03238C1.78219 4.37399 3.93396 2.00271 6.52029 2.00023H13.3081C14.4062 1.98919 15.4707 2.38589 16.3033 3.11637C18.6703 5.19315 20.1928 12.2421 19.607 15.0443C19.1497 17.2321 16.9923 18.7627 15.5255 20.259C18.7465 26.0381 23.4365 30.8229 29.1013 34.1091C30.568 32.6125 32.0683 30.4117 34.2128 29.9451C36.9638 29.3465 43.9038 30.9049 45.9273 33.3414C46.6448 34.2054 47.026 35.3084 46.9985 36.4405Z" stroke="#C7D6FF" stroke-width="3" stroke-linecap="round" stroke-linejoin="round"/>
</svg>
