<svg width="45" height="47" viewBox="0 0 45 47" fill="none" xmlns="http://www.w3.org/2000/svg">
<path d="M23.7784 46.9716C20.0114 46.9716 16.6813 46.4545 13.7884 45.4205C10.8954 44.3987 8.46402 42.8906 6.49432 40.8963C4.52462 38.902 3.03504 36.4583 2.02557 33.5653C1.0161 30.6723 0.511364 27.3608 0.511364 23.6307C0.511364 20.0237 1.02225 16.7983 2.04403 13.9545C3.07813 11.1108 4.57386 8.69792 6.53125 6.71591C8.50095 4.72159 10.8892 3.20123 13.696 2.15483C16.5152 1.10843 19.7036 0.585226 23.2614 0.585226C26.7206 0.585226 29.7491 1.15151 32.3466 2.28409C34.9564 3.40435 37.1354 4.92472 38.8835 6.84517C40.6439 8.75331 41.9612 10.9015 42.8352 13.2898C43.7216 15.678 44.1648 18.1402 44.1648 20.6761C44.1648 22.4612 44.0786 24.2708 43.9062 26.1051C43.7339 27.9394 43.3707 29.6259 42.8168 31.1648C42.2628 32.6913 41.4072 33.9223 40.25 34.858C39.1051 35.7936 37.554 36.2614 35.5966 36.2614C34.7348 36.2614 33.7869 36.1259 32.7528 35.8551C31.7188 35.5843 30.8016 35.1349 30.0014 34.5071C29.2012 33.8793 28.7273 33.036 28.5795 31.9773H28.358C28.0625 32.6913 27.607 33.3684 26.9915 34.0085C26.3883 34.6487 25.5942 35.1596 24.6094 35.5412C23.6368 35.9228 22.4489 36.089 21.0455 36.0398C19.4451 35.9782 18.0355 35.6212 16.8168 34.9688C15.598 34.304 14.5762 33.4053 13.7514 32.2727C12.9389 31.1278 12.3234 29.8045 11.9048 28.3026C11.4986 26.7884 11.2955 25.1572 11.2955 23.4091C11.2955 21.7472 11.5417 20.2268 12.0341 18.848C12.5265 17.4692 13.2098 16.2628 14.0838 15.2287C14.9702 14.1946 16.0043 13.3698 17.1861 12.7543C18.3802 12.1264 19.6667 11.7386 21.0455 11.5909C22.2765 11.4678 23.3968 11.5232 24.4062 11.7571C25.4157 11.9787 26.2467 12.3172 26.8991 12.7727C27.5516 13.2159 27.964 13.7083 28.1364 14.25H28.358V12.1818H32.2727V28.875C32.2727 29.9091 32.562 30.8201 33.1406 31.608C33.7192 32.3958 34.5625 32.7898 35.6705 32.7898C36.9261 32.7898 37.8864 32.3589 38.5511 31.4972C39.2282 30.6354 39.6899 29.3059 39.9361 27.5085C40.1946 25.7112 40.3239 23.4091 40.3239 20.6023C40.3239 18.9527 40.0961 17.3277 39.6406 15.7273C39.1974 14.1146 38.5204 12.6065 37.6094 11.2031C36.7107 9.79971 35.572 8.5625 34.1932 7.49148C32.8144 6.42045 31.1955 5.58333 29.3366 4.98011C27.4901 4.36458 25.3911 4.05682 23.0398 4.05682C20.1468 4.05682 17.5554 4.50615 15.2656 5.40483C12.9882 6.29119 11.0492 7.58996 9.44886 9.30113C7.8608 11 6.6482 13.0682 5.81108 15.5057C4.98627 17.9309 4.57386 20.6884 4.57386 23.7784C4.57386 26.9176 4.98627 29.706 5.81108 32.1435C6.6482 34.581 7.87926 36.6368 9.50426 38.3111C11.1416 39.9853 13.1667 41.2533 15.5795 42.1151C17.9924 42.9891 20.7746 43.4261 23.9261 43.4261C25.2803 43.4261 26.616 43.2969 27.9332 43.0384C29.2505 42.7798 30.4138 42.4967 31.4233 42.1889C32.4328 41.8812 33.1591 41.6534 33.6023 41.5057L34.6364 44.9034C33.8731 45.2235 32.8759 45.5436 31.6449 45.8636C30.4261 46.1837 29.1212 46.4484 27.7301 46.6577C26.3513 46.867 25.0341 46.9716 23.7784 46.9716ZM21.6364 32.2727C23.286 32.2727 24.6217 31.9403 25.6435 31.2756C26.6652 30.6108 27.41 29.6075 27.8778 28.2656C28.3456 26.9238 28.5795 25.2311 28.5795 23.1875C28.5795 21.1193 28.321 19.5066 27.804 18.3494C27.2869 17.1922 26.5237 16.3797 25.5142 15.9119C24.5047 15.4441 23.2614 15.2102 21.7841 15.2102C20.3807 15.2102 19.1804 15.5795 18.1832 16.3182C17.1984 17.0445 16.4413 18.017 15.9119 19.2358C15.3949 20.4422 15.1364 21.7595 15.1364 23.1875C15.1364 24.7633 15.3456 26.2467 15.7642 27.6378C16.1828 29.0166 16.866 30.1368 17.8139 30.9986C18.7618 31.848 20.036 32.2727 21.6364 32.2727Z" fill="white"/>
</svg>
