<svg width="32" height="49" viewBox="0 0 32 49" fill="none" xmlns="http://www.w3.org/2000/svg">
<path d="M10.1818 34.0455V33.2727C10.197 30.6212 10.4318 28.5076 10.8864 26.9318C11.3561 25.3561 12.0379 24.0833 12.9318 23.1136C13.8258 22.1439 14.9015 21.2652 16.1591 20.4773C17.0985 19.8712 17.9394 19.2424 18.6818 18.5909C19.4242 17.9394 20.0152 17.2197 20.4545 16.4318C20.8939 15.6288 21.1136 14.7348 21.1136 13.75C21.1136 12.7045 20.8636 11.7879 20.3636 11C19.8636 10.2121 19.1894 9.60606 18.3409 9.18182C17.5076 8.75757 16.5833 8.54545 15.5682 8.54545C14.5833 8.54545 13.6515 8.76515 12.7727 9.20454C11.8939 9.62879 11.1742 10.2652 10.6136 11.1136C10.053 11.947 9.75 12.9848 9.70455 14.2273H0.431818C0.507576 11.197 1.23485 8.69697 2.61364 6.72727C3.99242 4.74242 5.81818 3.26515 8.09091 2.29545C10.3636 1.3106 12.8712 0.81818 15.6136 0.81818C18.6288 0.81818 21.2955 1.31818 23.6136 2.31818C25.9318 3.30303 27.75 4.73485 29.0682 6.61364C30.3864 8.49242 31.0455 10.7576 31.0455 13.4091C31.0455 15.1818 30.75 16.7576 30.1591 18.1364C29.5833 19.5 28.7727 20.7121 27.7273 21.7727C26.6818 22.8182 25.447 23.7652 24.0227 24.6136C22.8258 25.3258 21.8409 26.0682 21.0682 26.8409C20.3106 27.6136 19.7424 28.5076 19.3636 29.5227C19 30.5379 18.8106 31.7879 18.7955 33.2727V34.0455H10.1818ZM14.6818 48.5909C13.1667 48.5909 11.8712 48.0606 10.7955 47C9.73485 45.9242 9.21212 44.6364 9.22727 43.1364C9.21212 41.6515 9.73485 40.3788 10.7955 39.3182C11.8712 38.2576 13.1667 37.7273 14.6818 37.7273C16.1212 37.7273 17.3864 38.2576 18.4773 39.3182C19.5682 40.3788 20.1212 41.6515 20.1364 43.1364C20.1212 44.1364 19.8561 45.053 19.3409 45.8864C18.8409 46.7045 18.1818 47.3636 17.3636 47.8636C16.5455 48.3485 15.6515 48.5909 14.6818 48.5909Z" fill="#001A5C"/>
</svg>
